<?xml version="1.0" standalone="no"?>
<!DOCTYPE svg PUBLIC "-//W3C//DTD SVG 20010904//EN"
 "http://www.w3.org/TR/2001/REC-SVG-20010904/DTD/svg10.dtd">
<svg version="1.0" xmlns="http://www.w3.org/2000/svg"
 width="1772.000000pt" height="1772.000000pt" viewBox="0 0 1772.000000 1772.000000"
 preserveAspectRatio="xMidYMid meet">

<g transform="translate(0.000000,1772.000000) scale(0.100000,-0.100000)"
fill="#000000" stroke="none">
<path d="M650 14064 c-188 -18 -403 -59 -566 -109 l-84 -26 2 -1592 3 -1592
160 -108 c813 -549 1946 -1065 3410 -1553 627 -208 1066 -338 1641 -487 l211
-55 16 132 c9 72 28 190 42 262 l25 132 -29 65 c-88 196 -200 542 -255 787
-146 658 -74 1154 209 1418 119 112 272 182 470 217 117 21 529 25 679 6 50
-6 91 -9 93 -7 11 10 -266 223 -462 353 -1235 824 -3839 1924 -5050 2133 -117
20 -408 34 -515 24z"/>
<path d="M16475 4535 c-1420 -67 -1613 -74 -2185 -85 -393 -7 -499 -12 -685
-34 -121 -14 -371 -32 -555 -41 -362 -18 -366 -19 -396 -76 -19 -37 -33 -171
-28 -267 29 -541 40 -672 109 -1227 69 -562 135 -1003 154 -1033 6 -10 56 -10
247 0 185 10 729 12 2412 10 l2172 -3 0 1405 0 1406 -57 -1 c-32 -1 -566 -25
-1188 -54z"/>
</g>
</svg>
