<?xml version="1.0" standalone="no"?>
<!DOCTYPE svg PUBLIC "-//W3C//DTD SVG 20010904//EN"
 "http://www.w3.org/TR/2001/REC-SVG-20010904/DTD/svg10.dtd">
<svg version="1.0" xmlns="http://www.w3.org/2000/svg"
 width="512.000000pt" height="512.000000pt" viewBox="0 0 512.000000 512.000000"
 preserveAspectRatio="xMidYMid meet">

<g transform="translate(0.000000,512.000000) scale(0.100000,-0.100000)"
fill="#000000" stroke="none">
<path d="M2375 5114 c-369 -38 -643 -112 -933 -254 -261 -127 -452 -262 -661
-465 -226 -221 -376 -424 -510 -696 -185 -373 -266 -717 -266 -1139 0 -422 81
-766 266 -1139 134 -272 284 -475 510 -696 213 -207 404 -341 673 -471 238
-114 493 -192 761 -231 181 -26 534 -24 720 5 429 67 825 234 1173 494 119 89
339 302 437 423 165 202 330 494 419 736 51 140 103 344 128 504 29 186 31
539 5 720 -64 441 -234 849 -499 1203 -89 119 -302 339 -423 437 -352 286
-787 478 -1240 546 -125 19 -463 33 -560 23z m1437 -1446 c108 -32 147 -193
64 -266 -28 -24 -45 -30 -107 -36 -92 -8 -152 -37 -185 -86 -29 -44 -65 -213
-170 -797 l-68 -383 -906 0 -906 0 -166 533 -166 532 982 5 c912 5 983 6 1013
23 18 9 38 27 44 39 13 24 53 190 68 281 13 76 41 120 94 146 37 19 60 21 206
21 96 0 180 -5 203 -12z m-1951 -1754 c85 -47 129 -122 129 -221 -1 -175 -163
-292 -334 -241 -25 8 -61 32 -93 63 -211 206 38 540 298 399z m1305 8 c189
-97 190 -362 2 -456 -177 -89 -385 53 -365 249 11 106 81 192 187 226 40 13
133 3 176 -19z"/>
</g>
</svg>
